<?xml version="1.0" encoding="UTF-8"?>
<svg width="173.32442px" height="181.895512px" viewBox="0 0 173.32442 181.895512" version="1.1" xmlns="http://www.w3.org/2000/svg" xmlns:xlink="http://www.w3.org/1999/xlink">
    <title>Group 4</title>
    <g id="Page-1" stroke="none" stroke-width="1" fill="none" fill-rule="evenodd">
        <g id="Extra-Large" transform="translate(-76.064461, -584.803545)" fill="#FFFEFE">
            <g id="Group-4" transform="translate(76.064461, 584.803545)">
                <g id="Group-3" transform="translate(0.000000, 0.000000)">
                    <path d="M82.4758022,-3.061617e-17 C84.9610836,-4.87154952e-16 86.9758022,2.01471863 86.9758022,4.5 L86.9756229,32.291 L108.249248,11.0187855 C110.006607,9.26142615 112.855849,9.26142615 114.613209,11.0187855 C116.370568,12.7761448 116.370568,15.6253872 114.613209,17.3827465 L86.4346229,45.562 L86.4346229,136.131 L114.613209,164.309398 C116.370568,166.066757 116.370568,168.915999 114.613209,170.673359 C112.855849,172.430718 110.006607,172.430718 108.249248,170.673359 L87.8522282,150.276512 L87.8520488,177.395512 C87.8520488,179.880794 85.8373302,181.895512 83.3520488,181.895512 L82.3520488,181.895512 C79.8667674,181.895512 77.8520488,179.880794 77.8520488,177.395512 L77.8522282,149.604512 L56.5786034,170.876727 C54.8212441,172.634086 51.9720017,172.634086 50.2146423,170.876727 C48.457283,169.119368 48.457283,166.270125 50.2146423,164.512766 L77.5435008,137.180693 C77.4728221,136.863913 77.4355391,136.534538 77.4355391,136.196455 L77.4355391,45.196455 C77.4355391,45.070747 77.4406937,44.9462429 77.4508029,44.8231425 L50.2146423,17.5861148 C48.457283,15.8287555 48.457283,12.9795131 50.2146423,11.2221538 C51.9720017,9.46479447 54.8212441,9.46479447 56.5786034,11.2221538 L76.9756229,31.619 L76.9758022,4.5 C76.9758022,2.01471863 78.9905208,4.87154952e-16 81.4758022,3.061617e-17 L82.4758022,-3.061617e-17 Z" id="Combined-Shape"></path>
                    <path d="M33.0720112,16.9908021 L46.76,54.5936681 L125.639176,111.422898 C125.77122,111.518029 125.895398,111.620053 126.011566,111.728127 C126.229136,111.694698 126.452901,111.677784 126.680617,111.677784 L167.680617,111.677784 C170.165898,111.677784 172.180617,113.692503 172.180617,116.177784 C172.180617,118.663066 170.165898,120.677784 167.680617,120.677784 L138.834998,120.677907 L158.0109,139.854063 C159.768259,141.611422 159.768259,144.460664 158.0109,146.218024 L157.303793,146.92513 C155.546434,148.68249 152.697191,148.68249 150.939832,146.92513 L131.288754,127.273799 L131.287757,157.35825 C131.287757,159.843532 129.273038,161.85825 126.787757,161.85825 C124.302476,161.85825 122.287757,159.843532 122.287757,157.35825 L122.286062,118.133187 C121.939291,118.020482 121.603152,117.855115 121.288932,117.635095 L42.222,62.2716681 L6.04031533,75.4416714 C3.70491476,76.2916877 1.12262418,75.0875458 0.27260789,72.7521453 C-0.577408401,70.4167447 0.626733471,67.8344541 2.96213404,66.9844378 L30.0681075,57.1185399 L5.49002244,45.6573928 C3.23759258,44.6070675 2.26309428,41.9296554 3.31341957,39.6772255 L3.73603784,38.7709177 C4.78636313,36.5184879 7.46377519,35.5439896 9.71620506,36.5943149 L34.903329,48.3394615 L24.6147776,20.0689834 C23.7647613,17.7335828 24.9689032,15.1512923 27.3043038,14.301276 C29.6397043,13.4512597 32.2219949,14.6554015 33.0720112,16.9908021 Z" id="Combined-Shape"></path>
                </g>
                <path d="M127.643954,15.1810649 C130.129235,15.1810649 132.143954,17.1957836 132.143954,19.6810649 L132.144076,48.526684 L151.320232,29.350782 C153.077591,27.5934227 155.926834,27.5934227 157.684193,29.350782 L158.3913,30.0578888 C160.148659,31.8152481 160.148659,34.6644905 158.3913,36.4218499 L138.739968,56.0729276 L168.82442,56.0739248 C171.309701,56.0739248 173.32442,58.0886434 173.32442,60.5739248 C173.32442,63.0592062 171.309701,65.0739248 168.82442,65.0739248 L128.616943,65.075598 C128.303617,65.144659 127.978037,65.1810649 127.643954,65.1810649 C127.278821,65.1810649 126.923845,65.1375774 126.583924,65.0554992 L96.8947339,85.0815751 C96.9217782,85.4496694 96.9355391,85.8214552 96.9355391,86.196455 C96.9355391,94.4807262 90.2198104,101.196455 81.9355391,101.196455 C79.5513627,101.196455 77.2971028,100.640216 75.295453,99.6504321 L52.7306977,114.870401 C52.3980111,115.094801 52.0461227,115.268793 51.6840565,115.394132 L51.6838972,153.214447 C51.6838972,155.699729 49.6691786,157.714447 47.1838972,157.714447 C44.6986159,157.714447 42.6838972,155.699729 42.6838972,153.214447 L42.6837747,124.368828 L23.5076191,143.54473 C21.7502598,145.30209 18.9010174,145.30209 17.1436581,143.54473 L16.4365513,142.837624 C14.679192,141.080264 14.679192,138.231022 16.4365513,136.473662 L36.0878827,116.822585 L6.00343117,116.821588 C3.5181498,116.821588 1.50343117,114.806869 1.50343117,112.321588 C1.50343117,109.836306 3.5181498,107.821588 6.00343117,107.821588 L46.2109084,107.819914 C46.5242344,107.750853 46.8498143,107.714447 47.1838972,107.714447 L47.2932426,107.716151 C47.4208358,107.607558 47.5557877,107.50496 47.6979615,107.409063 L68.6926542,93.2473371 C67.571208,91.1454391 66.9355391,88.7451812 66.9355391,86.196455 C66.9355391,77.9121837 73.6512679,71.196455 81.9355391,71.196455 C86.5514196,71.196455 90.6803362,73.2813954 93.4319187,76.5609059 L123.140381,56.5225088 L123.143954,19.6810649 C123.143954,17.1957836 125.158672,15.1810649 127.643954,15.1810649 Z" id="Combined-Shape"></path>
            </g>
        </g>
    </g>
</svg>